<?xml version="1.0" encoding="utf-8"?>
<!-- Generator: Adobe Illustrator 21.1.0, SVG Export Plug-In . SVG Version: 6.00 Build 0)  -->
<svg version="1.1" id="Layer_1" xmlns="http://www.w3.org/2000/svg" xmlns:xlink="http://www.w3.org/1999/xlink" x="0px" y="0px"
	 width="32px" height="32px" viewBox="0 0 32 32" style="enable-background:new 0 0 32 32;" xml:space="preserve">
<style type="text/css">
	.st0{fill:#00AAF2;}
	.st1{fill:#FFFFFF;}
</style>
<g>
	<path class="st0" d="M16,0C7.2,0,0,7.2,0,16s7.2,16,16,16s16-7.2,16-16S24.8,0,16,0z M22.1,13v0.4c0,4-3.1,8.6-8.9,8.6
		c-1.8,0-3.4-0.5-4.8-1.4c0.2,0,0.4,0,0.7,0c1.5,0,2.8-0.5,3.9-1.3c-1.3,0-2.5-0.9-2.9-2.1c0.2,0.1,0.4,0.1,0.6,0.1
		c0.3,0,0.5,0,0.8-0.1c-1.4-0.3-2.5-1.5-2.5-3c0.4,0.2,0.9,0.4,1.4,0.4C9.6,14.1,9,13.1,9,12.1c0-0.6,0.1-1.1,0.5-1.7
		c1.6,1.9,3.9,3.1,6.5,3.2c-0.1-0.2-0.1-0.5-0.1-0.7c0-1.6,1.4-3,3.1-3c0.9,0,1.7,0.4,2.3,1c0.7-0.1,1.4-0.4,2-0.7
		c-0.3,0.7-0.7,1.3-1.4,1.7c0.6-0.1,1.2-0.3,1.8-0.5C23.2,12,22.7,12.6,22.1,13z"/>
	<path class="st1" d="M23.3,10.2c-0.6,0.3-1.3,0.6-2,0.7c-0.6-0.6-1.4-1-2.3-1c-1.7,0-3.1,1.4-3.1,3c0,0.2,0,0.5,0.1,0.7
		c-2.6-0.1-4.9-1.3-6.5-3.2C9.1,11,9,11.5,9,12.1c0,1,0.6,2,1.4,2.5c-0.5,0-1-0.2-1.4-0.4c0,1.5,1.1,2.7,2.5,3
		c-0.3,0.1-0.5,0.1-0.8,0.1c-0.2,0-0.4,0-0.6-0.1c0.4,1.2,1.6,2.1,2.9,2.1c-1.1,0.8-2.4,1.3-3.9,1.3c-0.3,0-0.5,0-0.7,0
		c1.4,0.9,3,1.4,4.8,1.4c5.8,0,8.9-4.6,8.9-8.6V13c0.6-0.4,1.1-1,1.6-1.6c-0.6,0.2-1.2,0.4-1.8,0.5C22.6,11.5,23,10.9,23.3,10.2z"/>
</g>
</svg>
